<?xml version="1.0" encoding="UTF-8"?>
<svg id="Capa_1" data-name="Capa 1" xmlns="http://www.w3.org/2000/svg" xmlns:xlink="http://www.w3.org/1999/xlink" viewBox="0 0 500 500">
  <defs>
    <style>
      .cls-1 {
        fill: #e0e0e0;
      }

      .cls-2 {
        fill: none;
      }

      .cls-3 {
        fill: #9e9e9e;
      }

      .cls-4 {
        clip-path: url(#clippath);
      }
    </style>
    <clipPath id="clippath">
      <rect class="cls-2" width="500" height="500"/>
    </clipPath>
  </defs>
  <rect class="cls-1" x="0" width="500" height="500"/>
  <g class="cls-4">
    <path class="cls-3" d="M452.6,498.74c-4.42,4.29-8.98,8.44-13.67,12.45-9.25,7.92-19,15.26-29.2,21.97-45.85,30.18-100.74,47.74-159.74,47.74s-113.89-17.55-159.74-47.74c-10.2-6.71-19.95-14.05-29.2-21.97-4.69-4.01-9.25-8.16-13.67-12.45,10.97-33.98,37.78-61.52,73.15-72.68l86.12-27.19v-14.2c-10.79-6.41-20.44-13.74-28.39-19.11-14.79-9.98-24.75-25.62-27.69-43.23l-4.59-27.47c-14.38,0-26.01-11.62-26.01-26.01,0-10.69,6.42-19.86,15.62-23.85-8.04-18.86-13.94-38.84-17.49-59.33-2.25-12.98-3.52-26.67.29-39.19,3.8-12.52,13.89-23.5,25.78-23.72l1.56.11c7.51-11.73,19.24-19.45,31.56-23.91,12.31-4.47,25.31-5.99,38.2-7.47,5.04-.58,10.09-1.16,15.17-1.67,23.4-2.25,48.87-2.8,72.79,3.86,23.93,6.66,47.04,21.61,59.23,45.42,9.67,18.9,11.64,41.7,9.2,63.27-1.61,14.31-5.04,28.25-9.07,42,10.04,3.6,17.2,13.19,17.2,24.48,0,14.38-11.61,26.01-26.01,26.01l-4.59,27.47c-2.94,17.6-12.89,33.25-27.69,43.23-7.96,5.37-17.6,12.7-28.39,19.11v14.2l86.11,27.19c35.38,11.17,62.19,38.71,73.16,72.68Z"/>
  </g>
</svg>